Coordinates
version=1
nRows=15
nColumns=34
inDegrees=yes

Units are S.I. units (second, meters, Newtons, ...)
If the header above contains a line with 'inDegrees', this indicates whether rotational values are in degrees (yes) or radians (no).

endheader
time	pelvis_tilt	pelvis_list	pelvis_rotation	pelvis_tx	pelvis_ty	pelvis_tz	hip_flexion_r	hip_adduction_r	hip_rotation_r	knee_angle_r	ankle_angle_r	subtalar_angle_r	mtp_angle_r	hip_flexion_l	hip_adduction_l	hip_rotation_l	knee_angle_l	ankle_angle_l	subtalar_angle_l	mtp_angle_l	lumbar_extension	lumbar_bending	lumbar_rotation	arm_flex_r	arm_add_r	arm_rot_r	elbow_flex_r	pro_sup_r	arm_flex_l	arm_add_l	arm_rot_l	elbow_flex_l	pro_sup_l
      5.23333330	    -11.74276017	      2.77706977	     -1.46840075	      0.77770054	      1.20841574	     -0.05814873	      9.41124878	      0.18578237	     -9.89882667	      1.08652494	    -44.51416530	      9.21977141	      0.00000000	     14.26170227	      3.74649940	     -6.80208535	      3.81455414	    -42.81303179	      4.35185279	      0.00000000	      0.60984484	      0.94664164	     -1.16333433	     -6.81404874	    -16.55326689	     45.48554439	     35.32296524	     73.15074934	    -27.43916664	    -18.90074143	     22.95314065	     62.95452973	     77.58166860
      5.25000000	    -11.63363938	      2.81826979	     -1.88738260	      0.78020559	      1.20217666	     -0.05879315	      9.70913249	      0.22106464	     -9.91475130	      0.98634782	    -44.53051792	      9.28801840	      0.00000000	     14.47185245	      3.95048985	     -6.58428434	      4.04973803	    -42.95357380	      4.61466495	      0.00000000	      0.05959768	      1.04395344	     -0.92676713	     -6.88158020	    -16.81413253	     45.49677947	     35.18154957	     73.09474065	    -28.12124804	    -18.71403710	     23.27013921	     62.77656730	     77.59104344
      5.26666670	    -11.64366429	      2.73439240	     -2.23915872	      0.77901470	      1.18964042	     -0.05617291	     10.26173446	      0.45698457	    -10.01890458	      1.14142642	    -43.61707329	      9.17057529	      0.00000000	     14.86407919	      3.89599308	     -7.11482218	      4.13600936	    -42.30088713	      4.27797125	      0.00000000	     -0.41479277	      1.32270343	     -1.28696067	     -6.48721657	    -16.98879544	     45.53841185	     34.90395543	     72.82406345	    -28.62502865	    -18.50017280	     24.20073511	     62.18337873	     77.60588789
      5.28333330	    -11.63127634	      2.85144928	     -2.39022982	      0.77715740	      1.17947623	     -0.05694795	     10.69173636	      0.38348191	    -10.28460490	      1.30224391	    -42.90167899	      9.22909361	      0.00000000	     15.41140662	      4.08061470	     -7.15337549	      4.58198757	    -41.86856867	      4.42042474	      0.00000000	     -0.53285058	      1.40379807	     -1.14555422	     -6.08058554	    -16.87092763	     46.89176181	     32.87361796	     71.34905895	    -27.38570647	    -18.88650849	     26.35939807	     60.26827912	     77.36364276
      5.30000000	    -11.32287048	      2.91730042	     -2.71811626	      0.77822306	      1.15904912	     -0.05521744	     10.89835063	      0.37412449	    -10.73099410	      1.67551362	    -42.05417054	      8.53113190	      0.00000000	     15.49124364	      4.07972929	     -7.43789753	      5.04392322	    -40.89573090	      3.76308211	      0.00000000	     -0.99994106	      1.45489841	     -1.10407050	     -5.95694314	    -17.09472927	     46.98509103	     32.68137071	     71.13947988	    -27.32354661	    -18.95016828	     26.57358052	     60.20937806	     77.30920420
      5.31666670	    -11.03575281	      2.89943067	     -2.88465366	      0.77685477	      1.13677423	     -0.05539751	     11.11490099	      0.37118999	    -10.65425158	      1.99151604	    -40.74462903	      7.98289720	      0.00000000	     15.64452250	      4.06230734	     -7.28989795	      5.56461715	    -39.17276047	      2.91628732	      0.00000000	     -1.35209331	      1.74552143	     -0.41932196	     -5.55169731	    -17.21417200	     50.57655269	     31.18858015	     64.65042854	    -25.63123925	    -19.85864128	     30.80850971	     59.52065681	     75.17273818
      5.33333330	    -10.91080246	      2.84207023	     -2.57307129	      0.77774059	      1.11685528	     -0.05607833	     11.52705899	      0.16702887	    -10.04197638	      2.70247247	    -37.89881807	      8.06145023	      0.00000000	     16.08303071	      4.18877186	     -7.39656019	      6.43383122	    -36.43823286	      2.42720076	      0.00000000	     -1.64150268	      1.94408851	     -0.77495346	     -5.50678872	    -17.46423859	     50.46247874	     31.20143266	     64.15097838	    -25.40375114	    -19.60772277	     30.66379370	     59.04374607	     74.93626559
      5.35000000	    -10.83853165	      2.82900258	     -2.19458207	      0.77760401	      1.09108786	     -0.05839524	     12.03565095	     -0.06826361	     -9.40549481	      3.64908892	    -34.48764621	      8.37404576	      0.00000000	     16.63198810	      4.38995867	     -8.11658060	      7.82263888	    -32.72654832	      1.85270897	      0.00000000	     -1.86417684	      2.19983551	     -1.06743504	     -5.55970238	    -17.65389108	     50.41025830	     31.01733455	     62.89659267	    -24.97554671	    -19.19288421	     31.02779855	     57.88515921	     74.40776010
      5.36666670	    -10.50330540	      2.75912431	     -1.86067006	      0.77467332	      1.06695875	     -0.06111256	     12.52127659	     -0.27019482	     -7.97427877	      4.97735869	    -32.24484841	      8.35077277	      0.00000000	     17.24030214	      4.60194337	     -7.92095335	      9.79878840	    -29.76998346	      0.51042200	      0.00000000	     -2.80576014	      2.61626626	     -1.34539251	     -5.04106362	    -17.98327256	     50.33684185	     30.89924140	     62.56916442	    -24.28645549	    -18.89045774	     31.30651939	     57.70862395	     74.29869709
      5.38333330	    -10.43514669	      2.48085411	     -1.45662465	      0.77652871	      1.04086945	     -0.06534733	     13.23664141	     -0.34628209	     -6.35039669	      6.85101942	    -29.13714849	      8.61625949	      0.00000000	     17.97201519	      4.70090873	     -8.20324067	     12.00274043	    -26.46702824	     -0.25096232	      0.00000000	     -3.21033650	      3.45919110	     -1.00306055	     -5.03929424	    -18.43492416	     50.75536540	     30.65239670	     59.81841878	    -22.25730822	    -18.42416300	     33.72990824	     55.40588574	     73.25547898
      5.40000000	     -9.86972991	      2.24730412	     -1.50042824	      0.77288716	      1.00892294	     -0.06610836	     13.92854402	     -0.29262676	     -4.77897025	      9.78942508	    -26.03778108	      7.97888827	      0.00000000	     18.41594979	      4.69276077	     -8.49585356	     14.78712207	    -24.07575894	     -1.86246892	      0.00000000	     -4.61658700	      4.01678517	     -1.23596309	     -4.06064128	    -18.74590290	     50.59487589	     30.67168042	     59.49024027	    -21.24168251	    -17.85708964	     34.02544859	     55.31439467	     73.12915474
      5.41666670	     -9.05144348	      1.96670313	     -1.81293869	      0.77843159	      0.96982450	     -0.07056687	     14.56286020	     -0.24426760	     -3.19429171	     13.73394658	    -22.73962830	      6.73026566	      0.00000000	     18.58958844	      4.44576549	     -8.93195589	     18.31916815	    -20.73139879	     -4.40891962	      0.00000000	     -6.00966130	      4.71438618	     -1.35543994	     -3.20214374	    -19.19515792	     50.55149898	     30.66139372	     59.18586095	    -20.35419485	    -17.20415760	     34.59398815	     54.83785275	     73.02741351
      5.43333330	     -8.00932332	      1.55083828	     -2.31649290	      0.77532831	      0.93944919	     -0.07014603	     15.64187719	      0.11748737	     -1.13877831	     19.85655964	    -15.53562022	      3.95490531	      0.00000000	     19.12063082	      3.98997566	     -7.92554234	     23.01473766	    -15.13597827	     -7.08962446	      0.00000000	     -7.98812649	      5.53621306	     -0.93643619	     -1.99897857	    -19.65905594	     50.47792767	     30.54373940	     58.89139075	    -17.58726796	    -17.21125988	     33.93057115	     54.67763388	     72.86228081
      5.45000000	     -7.39777413	      1.67210772	     -2.95109795	      0.76904403	      0.89818864	     -0.06630376	     18.31495017	      0.39782282	      2.09713395	     28.45189884	     -3.44687425	      0.03371665	      0.00000000	     21.23241320	      3.52157052	     -7.88313177	     30.56396563	     -5.47325957	     -9.48836086	      0.00000000	     -9.85454247	      5.75866935	      0.53024417	     -1.21106676	    -19.99971509	     50.08124680	     30.92295893	     58.11778069	    -15.85616682	    -17.31883770	     32.00857132	     56.17724007	     72.55819680
      5.46666670	     -7.05938235	      1.71877374	     -3.37971557	      0.76734945	      0.85079100	     -0.06806801	     21.84075306	      0.84195415	      3.94202808	     38.50960272	     10.87030988	     -3.85170246	      0.00000000	     24.15255070	      3.27213769	     -7.01783671	     39.23590718	      7.27018605	    -10.91930358	      0.00000000	    -11.77189945	      5.93598948	      1.42111748	     -0.31500968	    -20.24513160	     48.98062408	     31.37724582	     57.29775104	    -15.07876313	    -16.98066347	     28.52614189	     58.27356204	     72.26714151
